<?xml version="1.0" encoding="utf-8"?>
<!-- Generator: Adobe Illustrator 23.0.3, SVG Export Plug-In . SVG Version: 6.00 Build 0)  -->
<svg version="1.1" id="Layer_1" xmlns:svg="http://www.w3.org/2000/svg"
	 xmlns="http://www.w3.org/2000/svg" xmlns:xlink="http://www.w3.org/1999/xlink" x="0px" y="0px" viewBox="0 0 1050 590"
	 style="enable-background:new 0 0 1050 590;" xml:space="preserve">
<style type="text/css">
	.st0{fill:#1D1D1B;}
</style>
<path class="st0" d="M120,590h30V0h-30V590z M180,590h90V0h-90V590z M300,0v590h90V0H300z"/>
<path class="st0" d="M840,590h30V0h-30V590z M900,0v590h30V0H900z M420,590h30V0h-30V590z M480,0v590h30V0H480z"/>
<path class="st0" d="M540,590h90V0h-90V590z M660,590h30V0h-30V590z M720,0v590h90V0H720z"/>
</svg>
